{
  "asset": {
    "version": "2.0",
    "generator": "Created using the official Cinema 4D glTF Exporter 1.000x284978"
  },
  "scenes": [
    {
      "nodes": [0, 9]
    }
  ],
  "nodes": [
    {
      "name": "Null_1",
      "translation": [
        -1.4210854715202005e-14, -6.394884621840902e-14, 81.97584533691406
      ],
      "rotation": [0.0, 0.0, 0.0, -1.0],
      "scale": [1.0, 1.0, 1.0],
      "children": [1, 2, 3, 4, 5, 6, 7, 8]
    },
    {
      "name": "Null_1-Mat.1",
      "mesh": 0
    },
    {
      "name": "Null_1-Mat.4",
      "mesh": 1
    },
    {
      "name": "Null_1-Mat.1",
      "mesh": 2
    },
    {
      "name": "Null_1-Mat.4",
      "mesh": 3
    },
    {
      "name": "Null_1-Mat.1",
      "mesh": 4
    },
    {
      "name": "Null_1-Mat.1",
      "mesh": 5
    },
    {
      "name": "Null_1-Mat.2",
      "mesh": 6
    },
    {
      "name": "Null_1-Mat.2",
      "mesh": 7
    },
    {
      "name": "Null_1.1",
      "translation": [
        1.4210854715202005e-14, -7.105427357601002e-15, 334.4449768066406
      ],
      "rotation": [0.0, 0.0, 0.0, -1.0],
      "scale": [1.0, 1.0, 1.0],
      "mesh": 8
    }
  ],
  "meshes": [
    {
      "name": "Null_1-Mat.1",
      "primitives": [
        {
          "attributes": {
            "POSITION": 1,
            "NORMAL": 2,
            "TEXCOORD_0": 3
          },
          "indices": 0,
          "material": 0
        }
      ]
    },
    {
      "name": "Null_1-Mat.4",
      "primitives": [
        {
          "attributes": {
            "POSITION": 5,
            "NORMAL": 6,
            "TEXCOORD_0": 7
          },
          "indices": 4,
          "material": 1
        }
      ]
    },
    {
      "name": "Null_1-Mat.1",
      "primitives": [
        {
          "attributes": {
            "POSITION": 9,
            "NORMAL": 10,
            "TEXCOORD_0": 11
          },
          "indices": 8,
          "material": 2
        }
      ]
    },
    {
      "name": "Null_1-Mat.4",
      "primitives": [
        {
          "attributes": {
            "POSITION": 13,
            "NORMAL": 14,
            "TEXCOORD_0": 15
          },
          "indices": 12,
          "material": 1
        }
      ]
    },
    {
      "name": "Null_1-Mat.1",
      "primitives": [
        {
          "attributes": {
            "POSITION": 17,
            "NORMAL": 18,
            "TEXCOORD_0": 19
          },
          "indices": 16,
          "material": 2
        }
      ]
    },
    {
      "name": "Null_1-Mat.1",
      "primitives": [
        {
          "attributes": {
            "POSITION": 21,
            "NORMAL": 22,
            "TEXCOORD_0": 23
          },
          "indices": 20,
          "material": 3
        }
      ]
    },
    {
      "name": "Null_1-Mat.2",
      "primitives": [
        {
          "attributes": {
            "POSITION": 25,
            "NORMAL": 26,
            "TEXCOORD_0": 27
          },
          "indices": 24,
          "material": 4
        }
      ]
    },
    {
      "name": "Null_1-Mat.2",
      "primitives": [
        {
          "attributes": {
            "POSITION": 29,
            "NORMAL": 30,
            "TEXCOORD_0": 31
          },
          "indices": 28,
          "material": 5
        }
      ]
    },
    {
      "name": "Null_1.1",
      "primitives": [
        {
          "attributes": {
            "POSITION": 33,
            "NORMAL": 34,
            "TEXCOORD_0": 35
          },
          "indices": 32,
          "material": 6
        }
      ]
    }
  ],
  "accessors": [
    {
      "byteOffset": 0,
      "bufferView": 0,
      "type": "SCALAR",
      "componentType": 5123,
      "count": 5376,
      "min": [0],
      "max": [911]
    },
    {
      "byteOffset": 0,
      "bufferView": 1,
      "type": "VEC3",
      "componentType": 5126,
      "count": 912,
      "min": [-332.87933349609377, -25.792131423950197, -414.85516357421877],
      "max": [332.87933349609377, 17.072538375854493, 225.56455993652345]
    },
    {
      "byteOffset": 12,
      "bufferView": 1,
      "type": "VEC3",
      "componentType": 5126,
      "count": 912,
      "min": [-1.0, -0.9999688267707825, -1.0],
      "max": [1.0, 0.9999688267707825, 1.0]
    },
    {
      "byteOffset": 24,
      "bufferView": 1,
      "type": "VEC2",
      "componentType": 5126,
      "count": 912,
      "min": [0.0, 0.47277402877807619],
      "max": [1.0, 0.5411312580108643]
    },
    {
      "byteOffset": 0,
      "bufferView": 2,
      "type": "SCALAR",
      "componentType": 5123,
      "count": 23808,
      "min": [0],
      "max": [3971]
    },
    {
      "byteOffset": 0,
      "bufferView": 3,
      "type": "VEC3",
      "componentType": 5126,
      "count": 3972,
      "min": [-246.56100463867188, -41.96377944946289, 217.768798828125],
      "max": [246.9228057861328, 38.29043197631836, 298.02301025390627]
    },
    {
      "byteOffset": 12,
      "bufferView": 3,
      "type": "VEC3",
      "componentType": 5126,
      "count": 3972,
      "min": [-1.0, -1.0, -1.0],
      "max": [1.0, 0.9999688267707825, 1.0]
    },
    {
      "byteOffset": 24,
      "bufferView": 3,
      "type": "VEC2",
      "componentType": 5126,
      "count": 3972,
      "min": [0.10863389074802399, 0.43352067470550539],
      "max": [0.8913661241531372, 0.5876085758209229]
    },
    {
      "byteOffset": 0,
      "bufferView": 4,
      "type": "SCALAR",
      "componentType": 5123,
      "count": 5376,
      "min": [0],
      "max": [899]
    },
    {
      "byteOffset": 0,
      "bufferView": 5,
      "type": "VEC3",
      "componentType": 5126,
      "count": 900,
      "min": [-278.48309326171877, 70.78547668457031, 43.70201873779297],
      "max": [278.48309326171877, 151.80557250976563, 191.73516845703126]
    },
    {
      "byteOffset": 12,
      "bufferView": 5,
      "type": "VEC3",
      "componentType": 5126,
      "count": 900,
      "min": [-0.9949687719345093, -0.9934688210487366, -0.9947813153266907],
      "max": [0.9949687719345093, 0.995093822479248, 0.9969375729560852]
    },
    {
      "byteOffset": 24,
      "bufferView": 5,
      "type": "VEC2",
      "componentType": 5126,
      "count": 900,
      "min": [0.08170564472675324, 0.2579125165939331],
      "max": [0.9182943105697632, 0.3871169090270996]
    },
    {
      "byteOffset": 0,
      "bufferView": 6,
      "type": "SCALAR",
      "componentType": 5123,
      "count": 11904,
      "min": [0],
      "max": [1985]
    },
    {
      "byteOffset": 0,
      "bufferView": 7,
      "type": "VEC3",
      "componentType": 5126,
      "count": 1986,
      "min": [-87.36978912353516, -87.36978912353516, 144.91250610351563],
      "max": [87.36978912353516, 87.36978912353516, 319.6520690917969]
    },
    {
      "byteOffset": 12,
      "bufferView": 7,
      "type": "VEC3",
      "componentType": 5126,
      "count": 1986,
      "min": [-1.0, -0.9999688267707825, -1.0],
      "max": [1.0, 0.9999688267707825, 1.0]
    },
    {
      "byteOffset": 24,
      "bufferView": 7,
      "type": "VEC2",
      "componentType": 5126,
      "count": 1986,
      "min": [0.3685073256492615, 0.36039435863494875],
      "max": [0.6314926147460938, 0.6396056413650513]
    },
    {
      "byteOffset": 0,
      "bufferView": 8,
      "type": "SCALAR",
      "componentType": 5123,
      "count": 11520,
      "min": [0],
      "max": [1919]
    },
    {
      "byteOffset": 0,
      "bufferView": 9,
      "type": "VEC3",
      "componentType": 5126,
      "count": 1920,
      "min": [-125.35094451904297, -125.41065216064453, 185.17919921875],
      "max": [125.35094451904297, 125.2912368774414, 252.98236083984376]
    },
    {
      "byteOffset": 12,
      "bufferView": 9,
      "type": "VEC3",
      "componentType": 5126,
      "count": 1920,
      "min": [-1.0, -1.0, -0.9971563220024109],
      "max": [1.0, 1.0, 0.9971563220024109]
    },
    {
      "byteOffset": 24,
      "bufferView": 9,
      "type": "VEC2",
      "componentType": 5126,
      "count": 1920,
      "min": [0.31171715259552, 0.30019545555114748],
      "max": [0.68828284740448, 0.6999949216842651]
    },
    {
      "byteOffset": 0,
      "bufferView": 10,
      "type": "SCALAR",
      "componentType": 5123,
      "count": 11520,
      "min": [0],
      "max": [1919]
    },
    {
      "byteOffset": 0,
      "bufferView": 11,
      "type": "VEC3",
      "componentType": 5126,
      "count": 1920,
      "min": [-153.7599334716797, -153.81964111328126, 171.25045776367188],
      "max": [153.7599334716797, 153.70022583007813, 276.45562744140627]
    },
    {
      "byteOffset": 12,
      "bufferView": 11,
      "type": "VEC3",
      "componentType": 5126,
      "count": 1920,
      "min": [-1.0, -1.0, -0.9971563220024109],
      "max": [1.0, 1.0, 0.9971563220024109]
    },
    {
      "byteOffset": 24,
      "bufferView": 11,
      "type": "VEC2",
      "componentType": 5126,
      "count": 1920,
      "min": [0.26904553174972536, 0.254891037940979],
      "max": [0.7309544086456299, 0.7452993392944336]
    },
    {
      "byteOffset": 0,
      "bufferView": 12,
      "type": "SCALAR",
      "componentType": 5123,
      "count": 12096,
      "min": [0],
      "max": [2048]
    },
    {
      "byteOffset": 0,
      "bufferView": 13,
      "type": "VEC3",
      "componentType": 5126,
      "count": 2049,
      "min": [-312.0579833984375, -15.181292533874512, -394.0338439941406],
      "max": [312.0579833984375, 313.5345153808594, 230.0821533203125]
    },
    {
      "byteOffset": 12,
      "bufferView": 13,
      "type": "VEC3",
      "componentType": 5126,
      "count": 2049,
      "min": [-1.0, -0.9914063215255737, -1.0],
      "max": [1.0, 0.9999688267707825, 1.0]
    },
    {
      "byteOffset": 24,
      "bufferView": 13,
      "type": "VEC2",
      "componentType": 5126,
      "count": 2049,
      "min": [0.031274594366550449, 0.0],
      "max": [0.968725323677063, 0.5242098569869995]
    },
    {
      "byteOffset": 0,
      "bufferView": 14,
      "type": "SCALAR",
      "componentType": 5123,
      "count": 10944,
      "min": [0],
      "max": [1856]
    },
    {
      "byteOffset": 0,
      "bufferView": 15,
      "type": "VEC3",
      "componentType": 5126,
      "count": 1857,
      "min": [-310.75115966796877, -313.5345153808594, -392.7270202636719],
      "max": [310.75115966796877, -15.181292533874512, 228.7753143310547]
    },
    {
      "byteOffset": 12,
      "bufferView": 15,
      "type": "VEC3",
      "componentType": 5126,
      "count": 1857,
      "min": [-1.0, -0.9999688267707825, -1.0],
      "max": [1.0, 0.9914063215255737, 1.0]
    },
    {
      "byteOffset": 24,
      "bufferView": 15,
      "type": "VEC2",
      "componentType": 5126,
      "count": 1857,
      "min": [0.0332375168800354, 0.5242098569869995],
      "max": [0.9667624235153198, 1.0]
    },
    {
      "byteOffset": 0,
      "bufferView": 16,
      "type": "SCALAR",
      "componentType": 5123,
      "count": 24576,
      "min": [0],
      "max": [4099]
    },
    {
      "byteOffset": 0,
      "bufferView": 17,
      "type": "VEC3",
      "componentType": 5126,
      "count": 4100,
      "min": [-130.32449340820313, -130.32505798339845, -0.0697438046336174],
      "max": [130.32449340820313, 130.32505798339845, 130.32545471191407]
    },
    {
      "byteOffset": 12,
      "bufferView": 17,
      "type": "VEC3",
      "componentType": 5126,
      "count": 4100,
      "min": [-0.9951892495155335, -0.9980607628822327, -0.9999999403953552],
      "max": [0.9951892495155335, 0.9980607628822327, 0.9999999403953552]
    },
    {
      "byteOffset": 24,
      "bufferView": 17,
      "type": "VEC2",
      "componentType": 5126,
      "count": 4100,
      "min": [0.3685073256492615, 0.36039435863494875],
      "max": [0.6314926147460938, 0.6396056413650513]
    }
  ],
  "bufferViews": [
    {
      "buffer": 0,
      "byteOffset": 0,
      "byteLength": 10752,
      "target": 34963
    },
    {
      "buffer": 0,
      "byteOffset": 10752,
      "byteLength": 29184,
      "byteStride": 32,
      "target": 34962
    },
    {
      "buffer": 1,
      "byteOffset": 0,
      "byteLength": 47616,
      "target": 34963
    },
    {
      "buffer": 1,
      "byteOffset": 47616,
      "byteLength": 127104,
      "byteStride": 32,
      "target": 34962
    },
    {
      "buffer": 2,
      "byteOffset": 0,
      "byteLength": 10752,
      "target": 34963
    },
    {
      "buffer": 2,
      "byteOffset": 10752,
      "byteLength": 28800,
      "byteStride": 32,
      "target": 34962
    },
    {
      "buffer": 3,
      "byteOffset": 0,
      "byteLength": 23808,
      "target": 34963
    },
    {
      "buffer": 3,
      "byteOffset": 23808,
      "byteLength": 63552,
      "byteStride": 32,
      "target": 34962
    },
    {
      "buffer": 4,
      "byteOffset": 0,
      "byteLength": 23040,
      "target": 34963
    },
    {
      "buffer": 4,
      "byteOffset": 23040,
      "byteLength": 61440,
      "byteStride": 32,
      "target": 34962
    },
    {
      "buffer": 5,
      "byteOffset": 0,
      "byteLength": 23040,
      "target": 34963
    },
    {
      "buffer": 5,
      "byteOffset": 23040,
      "byteLength": 61440,
      "byteStride": 32,
      "target": 34962
    },
    {
      "buffer": 6,
      "byteOffset": 0,
      "byteLength": 24192,
      "target": 34963
    },
    {
      "buffer": 6,
      "byteOffset": 24192,
      "byteLength": 65568,
      "byteStride": 32,
      "target": 34962
    },
    {
      "buffer": 7,
      "byteOffset": 0,
      "byteLength": 21888,
      "target": 34963
    },
    {
      "buffer": 7,
      "byteOffset": 21888,
      "byteLength": 59424,
      "byteStride": 32,
      "target": 34962
    },
    {
      "buffer": 8,
      "byteOffset": 0,
      "byteLength": 49152,
      "target": 34963
    },
    {
      "buffer": 8,
      "byteOffset": 49152,
      "byteLength": 131200,
      "byteStride": 32,
      "target": 34962
    }
  ],
  "buffers": [
    {
      "uri": "data:application/octet-stream;base64,",
      "byteLength": 39936
    },
    {
      "uri": "data:application/octet-stream;base64,",
      "byteLength": 174720
    },
    {
      "uri": "data:application/octet-stream;base64,",
      "byteLength": 39552
    },
    {
      "uri": "data:application/octet-stream;base64,",
      "byteLength": 87360
    },
    {
      "uri": "data:application/octet-stream;base64,",
      "byteLength": 84480
    },
    {
      "uri": "data:application/octet-stream;base64,",
      "byteLength": 84480
    },
    {
      "uri": "data:application/octet-stream;base64,",
      "byteLength": 89760
    },
    {
      "uri": "data:application/octet-stream;base64,",
      "byteLength": 81312
    },
    {
      "uri": "data:application/octet-stream;base64,",
      "byteLength": 180352
    }
  ],
  "materials": [
    {
      "pbrMetallicRoughness": {
        "baseColorFactor": [0.665, 0.7000000000000001, 0.6749166666666666, 1.0],
        "metallicFactor": 0.0,
        "roughnessFactor": 0.5
      },
      "emissiveFactor": [0.0, 0.0, 0.0],
      "alphaMode": "OPAQUE",
      "doubleSided": false,
      "name": "Mat.1"
    },
    {
      "pbrMetallicRoughness": {
        "baseColorFactor": [1.0, 1.0, 1.0, 1.0],
        "metallicFactor": 1.0,
        "roughnessFactor": 1.0
      },
      "emissiveFactor": [0.030000000000000028, 0.9353333333333327, 1.0],
      "alphaMode": "OPAQUE",
      "doubleSided": false,
      "name": "Mat.4"
    },
    {
      "pbrMetallicRoughness": {
        "baseColorFactor": [0.08270833333333344, 0.0675, 0.25, 1.0],
        "metallicFactor": 0.0,
        "roughnessFactor": 0.5
      },
      "emissiveFactor": [0.0, 0.0, 0.0],
      "alphaMode": "OPAQUE",
      "doubleSided": false,
      "name": "Mat.1"
    },
    {
      "pbrMetallicRoughness": {
        "baseColorFactor": [0.273, 0.7000000000000001, 0.3939833333333335, 1.0],
        "metallicFactor": 0.0,
        "roughnessFactor": 0.5
      },
      "emissiveFactor": [0.0, 0.0, 0.0],
      "alphaMode": "OPAQUE",
      "doubleSided": false,
      "name": "Mat.1"
    },
    {
      "pbrMetallicRoughness": {
        "baseColorFactor": [
          0.08189999999999997, 0.34413166666666647, 0.91, 1.0
        ],
        "metallicFactor": 0.0,
        "roughnessFactor": 0.5
      },
      "emissiveFactor": [0.0, 0.0, 0.0],
      "alphaMode": "OPAQUE",
      "doubleSided": false,
      "name": "Mat.2"
    },
    {
      "pbrMetallicRoughness": {
        "baseColorFactor": [
          0.07039999999999999, 0.08938666666666656, 0.64, 1.0
        ],
        "metallicFactor": 0.0,
        "roughnessFactor": 0.5
      },
      "emissiveFactor": [0.0, 0.0, 0.0],
      "alphaMode": "OPAQUE",
      "doubleSided": false,
      "name": "Mat.2"
    },
    {
      "pbrMetallicRoughness": {
        "baseColorFactor": [0.06999999999999995, 0.813999999999999, 1.0, 0.0],
        "metallicFactor": 0.22,
        "roughnessFactor": 0.29
      },
      "emissiveFactor": [0.0, 0.0, 0.0],
      "alphaMode": "BLEND",
      "doubleSided": false,
      "name": "Mat.5"
    }
  ]
}
