<svg width="14" height="14" viewBox="0 0 14 14" fill="none" xmlns="http://www.w3.org/2000/svg">
<circle cx="7" cy="7" r="7" fill="#90A1C6"/>
<path d="M7 3.90698C6.71318 3.90698 6.47287 3.81783 6.27907 3.63954C6.09302 3.45349 6 3.22481 6 2.95349C6 2.68217 6.09302 2.45736 6.27907 2.27907C6.47287 2.09302 6.71318 2 7 2C7.28682 2 7.52326 2.09302 7.7093 2.27907C7.9031 2.45736 8 2.68217 8 2.95349C8 3.22481 7.9031 3.45349 7.7093 3.63954C7.52326 3.81783 7.28682 3.90698 7 3.90698ZM7.80233 4.67442V11.1163H6.17442V4.67442H7.80233Z" fill="#F3F7FF"/>
</svg>
